#!OML:ASF F:\VICON\USERDATA\INSTALL\rory3\rory3.ASF
:FULLY-SPECIFIED
:DEGREES
613
root 4.83351 16.107 -8.61755 31.245 -45.6305 -7.49219
lowerback -1.88208 -1.43167 -7.1457
upperback -20.3937 -3.05392 3.91404
thorax -21.6232 0.150416 9.35517
lowerneck -1.68499 9.96457 2.12393
upperneck 1.86978 12.9336 16.0901
head -0.145893 6.5647 4.92525
rclavicle -3.14825e-014 2.83268e-014
rhumerus -59.4107 -41.8874 29.7957
rradius 14.2202
rwrist 38.603
rhand 20.008 -4.14411
rfingers 7.12502
rthumb 44.5426 -27.8216
lclavicle -3.14825e-014 2.83268e-014
lhumerus 78.8309 14.0465 27.5254
lradius 28.5705
lwrist -23.0186
lhand -2.90971 24.4121
lfingers 7.12502
lthumb 22.8006 53.0845
rfemur 151.312 -188.757 -145.96
rtibia 32.89
rfoot -45.0492 -34.4289
rtoes 18.6602
lfemur -100.729 29.1866 -50.1339
ltibia 61.5289
lfoot 39.2302 32.6789
ltoes 10.0836
614
root 4.83559 16.1066 -8.616 31.6086 -45.5483 -7.89933
lowerback -1.90678 -1.42574 -6.83979
upperback -20.4958 -2.99412 4.13532
thorax -21.7628 0.162874 9.44774
lowerneck -1.14031 10.101 1.37721
upperneck 1.78266 13.1975 17.0151
head -0.364727 6.66377 4.76156
rclavicle -1.88348e-014 5.47652e-014
rhumerus -59.0923 -42.4007 30.3254
rradius 14.173
rwrist 39.5038
rhand 19.7985 -4.03765
rfingers 7.12502
rthumb 44.3474 -27.7898
lclavicle -1.88348e-014 5.47652e-014
lhumerus 78.3455 13.959 26.9266
lradius 28.6592
lwrist -22.4896
lhand -3.53007 24.2052
lfingers 7.12502
lthumb 22.2052 52.9498
rfemur 151.337 -189.131 -145.769
rtibia 32.9346
rfoot -45.8742 -33.4782
rtoes 20.6569
lfemur -100.803 29.1779 -49.7573
ltibia 61.5205
lfoot 39.2741 32.6483
ltoes 10.0491
615
root 4.83994 16.1045 -8.6171 31.6653 -45.5713 -7.90654
lowerback -1.93115 -1.49695 -6.77163
upperback -20.6654 -3.07706 4.37234
thorax -21.9594 0.160947 9.72799
lowerneck 0.0849574 10.2657 0.638204
upperneck 1.38462 13.5882 17.2172
head -0.785104 6.77339 4.82896
rclavicle -8.61483e-014 -7.55382e-015
rhumerus -57.9431 -42.6295 29.9833
rradius 14.1209
rwrist 39.7294
rhand 19.4795 -4.01116
rfingers 7.12502
rthumb 44.0499 -27.8754
lclavicle -8.61483e-014 -7.55382e-015
lhumerus 77.3649 13.8073 25.6677
lradius 28.749
lwrist -21.42
lhand -3.9422 24.5249
lfingers 7.12502
lthumb 21.8095 53.316
rfemur 151.157 -188.729 -145.691
rtibia 33.0369
rfoot -44.1339 -34.6164
rtoes 17.1411
lfemur -100.8 29.1312 -49.7484
ltibia 61.4602
lfoot 39.0567 32.9159
ltoes 10.3743
616
root 4.84318 16.1038 -8.62146 31.7377 -45.6023 -7.89805
lowerback -1.98249 -1.31547 -6.74441
upperback -20.5572 -2.82643 4.15296
thorax -21.8392 0.231667 9.39302
lowerneck -0.730216 10.0286 1.1962
upperneck 1.83864 13.1302 16.8633
head -0.412987 6.61591 4.72269
rclavicle 3.05134e-014 -1.58779e-014
rhumerus -58.0025 -42.3417 29.9436
rradius 14.1795
rwrist 39.0699
rhand 19.6689 -4.21628
rfingers 7.12502
rthumb 44.2265 -28.0142
lclavicle 3.05134e-014 -1.58779e-014
lhumerus 77.8256 13.7822 25.3596
lradius 28.8391
lwrist -20.9086
lhand -3.66026 24.7897
lfingers 7.12502
lthumb 22.0802 53.5491
rfemur 150.977 -188.752 -145.732
rtibia 33.2139
rfoot -43.9456 -34.6644
rtoes 16.756
lfemur -100.82 29.0819 -49.7776
ltibia 61.3138
lfoot 39.3779 32.6504
ltoes 9.70894
617
root 4.84948 16.1096 -8.62992 31.6501 -45.761 -7.61359
lowerback -2.00574 -1.20834 -6.91798
upperback -20.5708 -2.71443 3.99385
thorax -21.8738 0.297541 9.28731
lowerneck -0.804065 9.92738 1.68803
upperneck 2.04118 12.9511 15.9464
head -0.266986 6.54753 4.89608
rclavicle 2.29224e-014 -8.92792e-014
rhumerus -58.1498 -42.5606 30.5247
rradius 14.2169
rwrist 39.4375
rhand 19.7913 -4.13877
rfingers 7.12502
rthumb 44.3406 -27.8934
lclavicle 2.29224e-014 -8.92792e-014
lhumerus 78.0732 13.7637 25.4943
lradius 28.9225
lwrist -21.049
lhand -3.05949 24.8313
lfingers 7.12502
lthumb 22.6569 53.5214
rfemur 150.793 -189.222 -146.151
rtibia 33.4052
rfoot -45.9645 -32.9211
rtoes 21.476
lfemur -100.832 29.0188 -50.0938
ltibia 61.1237
lfoot 39.7086 32.2588
ltoes 8.77775
618
root 4.85517 16.1059 -8.63704 31.878 -45.7123 -7.78546
lowerback -1.96156 -1.1366 -6.7707
upperback -20.6137 -2.60491 3.98934
thorax -21.9976 0.330616 9.19077
lowerneck -0.573113 9.84706 1.84456
upperneck 2.03696 12.8584 15.6599
head -0.267747 6.49233 4.75339
rclavicle -4.02042e-014 -3.37934e-015
rhumerus -57.7327 -42.4867 30.4641
rradius 14.2284
rwrist 39.3657
rhand 19.8612 -4.16554
rfingers 7.12502
rthumb 44.4058 -27.8954
lclavicle -4.02042e-014 -3.37934e-015
lhumerus 78.21 13.774 25.5318
lradius 28.9535
lwrist -21.2146
lhand -2.69712 24.7712
lfingers 7.12502
lthumb 23.0046 53.4184
rfemur 150.621 -189.475 -146.082
rtibia 33.5394
rfoot -46.6395 -32.2457
rtoes 23.1236
lfemur -100.985 28.9343 -50.0018
ltibia 61.0639
lfoot 39.9929 32.0515
ltoes 8.16901
619
root 4.85932 16.0964 -8.64004 32.0571 -45.5414 -8.02351
lowerback -1.82842 -1.10606 -6.59714
upperback -20.6281 -2.54364 4.04
thorax -22.1316 0.345969 9.15563
lowerneck -0.366272 9.79307 2.01611
upperneck 2.03652 12.798 15.4351
head -0.269785 6.45449 4.63179
rclavicle 7.57742e-014 6.53753e-014
rhumerus -57.219 -42.4662 30.4113
rradius 14.2345
rwrist 39.2676
rhand 20.7999 -4.34466
rfingers 7.12502
rthumb 45.2795 -27.7333
lclavicle 7.57742e-014 6.53753e-014
lhumerus 78.2517 13.8213 25.6147
lradius 28.9514
lwrist -21.4716
lhand -2.41807 24.5176
lfingers 7.12502
lthumb 23.2724 53.1312
rfemur 150.553 -189.402 -145.834
rtibia 33.6157
rfoot -46.3648 -32.4314
rtoes 22.0535
lfemur -101.05 28.8594 -49.7868
ltibia 61.0536
lfoot 40.1083 31.8196
ltoes 7.48192
620
root 4.86301 16.0938 -8.63977 32.0052 -45.4463 -8.06102
lowerback -1.63293 -1.10958 -6.5333
upperback -20.6451 -2.54753 4.09002
thorax -22.2986 0.354921 9.1991
lowerneck 0.0359139 9.79767 1.99768
upperneck 1.91341 12.852 15.3818
head -0.382101 6.45739 4.58482
rclavicle 1.46914e-014 2.93207e-015
rhumerus -56.7588 -42.6937 30.5381
rradius 14.2559
rwrist 39.4738
rhand 21.2675 -4.49932
rfingers 7.12502
rthumb 45.714 -27.712
lclavicle 1.46914e-014 2.93207e-015
lhumerus 78.1167 13.8751 25.6855
lradius 28.9018
lwrist -21.8474
lhand -2.29775 24.1594
lfingers 7.12502
lthumb 23.3878 52.7583
rfemur 150.617 -189.006 -145.698
rtibia 33.6032
rfoot -46.2857 -32.3203
rtoes 21.4397
lfemur -100.981 28.8658 -49.8045
ltibia 61.0652
lfoot 39.7062 32.1738
ltoes 8.3247
621
root 4.86891 16.0969 -8.63751 31.8146 -45.5652 -7.90319
lowerback -1.48898 -1.04024 -6.59717
upperback -20.607 -2.47921 3.95967
thorax -22.3701 0.386897 9.07634
lowerneck 0.312585 9.80681 2.00957
upperneck 1.64809 12.9199 15.5627
head -0.536428 6.46226 4.61908
rclavicle -5.81445e-015 1.53064e-014
rhumerus -56.8663 -43.0394 31.0373
rradius 14.2476
rwrist 39.9019
rhand 20.9754 -4.5098
rfingers 7.12502
rthumb 45.4426 -27.8329
lclavicle -5.81445e-015 1.53064e-014
lhumerus 78.1991 13.9457 25.6677
lradius 28.9454
lwrist -21.9525
lhand -1.80392 24.1806
lfingers 7.12502
lthumb 23.8614 52.7184
rfemur 150.676 -188.723 -145.812
rtibia 33.575
rfoot -45.8324 -32.5113
rtoes 20.9272
lfemur -100.904 28.9729 -50.1103
ltibia 61.0326
lfoot 39.4335 32.3151
ltoes 9.0567
622
root 4.87626 16.1061 -8.6422 31.5763 -45.767 -7.59575
lowerback -1.35274 -0.862326 -6.84657
upperback -20.5592 -2.29705 3.67414
thorax -22.4529 0.486545 8.85477
lowerneck 0.387399 9.62895 2.03714
upperneck 1.26063 12.7375 15.8094
head -0.680158 6.34201 4.69214
rclavicle -4.20678e-014 5.26779e-015
rhumerus -57.3898 -43.1715 31.8245
rradius 14.3275
rwrist 40.15
rhand 21.1062 -4.76686
rfingers 7.12502
rthumb 45.5641 -28.0407
lclavicle -4.20678e-014 5.26779e-015
lhumerus 78.6833 13.9232 26.2468
lradius 29.1315
lwrist -22.2186
lhand -0.855231 24.5323
lfingers 7.12502
lthumb 24.771 52.9482
rfemur 150.65 -188.589 -146.088
rtibia 33.562
rfoot -45.3496 -32.6246
rtoes 20.4768
lfemur -100.851 29.0539 -50.5148
ltibia 60.9649
lfoot 39.4118 32.1705
ltoes 9.15441
623
root 4.88258 16.1091 -8.64767 31.4271 -45.9776 -7.45868
lowerback -1.20953 -0.671278 -6.97053
upperback -20.5167 -2.07273 3.46942
thorax -22.5572 0.594123 8.65166
lowerneck 0.314684 9.42492 2.00927
upperneck 1.23654 12.4602 15.967
head -0.667539 6.20451 4.76642
rclavicle 3.26504e-014 2.33572e-014
rhumerus -57.9477 -43.5698 32.9466
rradius 14.4095
rwrist 41.0162
rhand 21.2595 -4.93206
rfingers 7.12502
rthumb 45.7065 -28.1478
lclavicle 3.26504e-014 2.33572e-014
lhumerus 79.0557 13.8936 27.0151
lradius 29.3148
lwrist -22.5662
lhand -0.250028 24.6726
lfingers 7.12502
lthumb 25.3509 53.0076
rfemur 150.688 -188.792 -146.301
rtibia 33.5247
rfoot -45.5553 -32.4242
rtoes 20.6073
lfemur -100.838 29.1885 -50.7106
ltibia 60.9522
lfoot 39.5388 31.8995
ltoes 8.68516
624
root 4.88517 16.0984 -8.64713 31.6221 -46.1045 -7.7821
lowerback -1.2033 -0.571843 -6.75561
upperback -20.4698 -1.89836 3.49435
thorax -22.5344 0.634047 8.52463
lowerneck 0.16815 9.38967 2.06557
upperneck 1.59674 12.3494 15.9785
head -0.511427 6.17868 4.78318
rclavicle -1.4561e-014 -4.67144e-015
rhumerus -58.104 -44.2484 33.8173
rradius 14.4156
rwrist 42.2366
rhand 21.4255 -4.85845
rfingers 7.12502
rthumb 45.8606 -28.0108
lclavicle -1.4561e-014 -4.67144e-015
lhumerus 78.7695 14.0483 26.4599
lradius 29.4593
lwrist -21.7622
lhand -0.429765 24.7811
lfingers 7.12502
lthumb 25.1787 53.1403
rfemur 150.77 -189.071 -146.148
rtibia 33.4648
rfoot -45.6295 -32.3967
rtoes 21.0495
lfemur -101.06 29.4173 -50.6106
ltibia 61.0726
lfoot 39.6904 31.6485
ltoes 8.44386
625
root 4.88898 16.0873 -8.64793 31.9546 -45.8578 -8.3964
lowerback -1.07796 -0.564107 -6.17971
upperback -20.3974 -1.80115 3.60982
thorax -22.5405 0.584756 8.31221
lowerneck 0.213358 9.3825 2.05525
upperneck 1.78843 12.3158 16.0628
head -0.461116 6.17161 4.8194
rclavicle -2.00773e-014 -3.18055e-015
rhumerus -58.7189 -45.4138 35.3408
rradius 14.3262
rwrist 44.0427
rhand 21.9694 -4.7154
rfingers 7.12502
rthumb 46.3651 -27.6563
lclavicle -2.00773e-014 -3.18055e-015
lhumerus 78.5008 14.2964 26.193
lradius 29.5903
lwrist -21.401
lhand -0.339089 24.5309
lfingers 7.12502
lthumb 25.2655 52.8779
rfemur 150.958 -188.826 -145.542
rtibia 33.3566
rfoot -45.3507 -32.4301
rtoes 20.9906
lfemur -101.22 29.5253 -50.0776
ltibia 61.3101
lfoot 39.4711 31.8317
ltoes 8.81263
626
root 4.89057 16.0778 -8.6505 32.2461 -45.4429 -8.95682
lowerback -0.920171 -0.576453 -5.57134
upperback -20.3278 -1.73469 3.67521
thorax -22.5689 0.51008 8.02631
lowerneck 0.301959 9.35019 1.92466
upperneck 1.81264 12.2768 16.3459
head -0.496671 6.14818 4.94166
rclavicle 7.73769e-014 -7.45443e-015
rhumerus -58.6175 -45.8133 35.6666
rradius 14.2887
rwrist 44.5879
rhand 22.1668 -4.77425
rfingers 7.12502
rthumb 46.5481 -27.637
lclavicle 7.73769e-014 -7.45443e-015
lhumerus 78.5392 14.5641 26.3143
lradius 29.8082
lwrist -21.3453
lhand 0.192503 24.4113
lfingers 7.12502
lthumb 25.7747 52.6855
rfemur 151.157 -188.175 -144.854
rtibia 33.2057
rfoot -44.9087 -32.298
rtoes 20.4399
lfemur -101.329 29.5224 -49.5312
ltibia 61.5559
lfoot 39.0481 32.4296
ltoes 9.73777
627
root 4.8915 16.0759 -8.65351 32.3702 -45.1922 -9.21946
lowerback -0.816615 -0.50624 -5.19737
upperback -20.2824 -1.60128 3.576
thorax -22.6088 0.488384 7.66675
lowerneck 0.285204 9.20184 1.98518
upperneck 1.92111 12.0571 16.5072
head -0.44783 6.04588 5.00079
rclavicle 4.33351e-014 -2.38542e-015
rhumerus -57.3331 -44.8343 34.1678
rradius 14.3237
rwrist 43.2435
rhand 22.1854 -4.95772
rfingers 7.12502
rthumb 46.5653 -27.8131
lclavicle 4.33351e-014 -2.38542e-015
lhumerus 78.7882 14.6972 26.2499
lradius 29.8567
lwrist -20.9689
lhand 0.197892 24.4599
lfingers 7.12502
lthumb 25.7799 52.7333
rfemur 151.308 -187.716 -144.486
rtibia 33.027
rfoot -44.469 -32.306
rtoes 19.8409
lfemur -101.454 29.5454 -49.3876
ltibia 61.7275
lfoot 38.9894 32.7575
ltoes 10.6663
